<svg width="180" height="36" viewBox="0 0 180 36" fill="none" xmlns="http://www.w3.org/2000/svg">
<path d="M92.668 17.4991C91.1818 17.4991 90.1104 17.9779 89.024 18.4657V29.5038C90.0646 29.6012 90.6611 29.6012 91.6483 29.6012C95.2157 29.6012 95.7047 27.9961 95.7047 25.7551V20.4833C95.7047 18.8283 95.1457 17.4991 92.668 17.4991ZM68.976 16.8967C66.5008 16.8967 65.9359 18.2316 65.9359 19.885V20.8139H72.0127V19.885C72.0127 18.2316 71.4478 16.8967 68.976 16.8967ZM23.0797 28.3857C23.0797 29.6937 23.7079 30.373 25.0942 30.373C26.5813 30.373 27.4619 29.8967 28.5475 29.4072V26.7889H25.2958C23.7562 26.7889 23.0797 27.0704 23.0797 28.3857ZM115.714 17.4991C113.235 17.4991 112.376 18.8283 112.376 20.4833V26.5229C112.376 28.1819 113.235 29.5153 115.714 29.5153C118.187 29.5153 119.053 28.1819 119.053 26.5229V20.4833C119.052 18.8283 118.186 17.4991 115.714 17.4991ZM10.9296 35.1579H3.64154V17.8273H0V11.8556H3.64237V8.26905C3.64237 3.39661 5.69766 0.5 11.5395 0.5H16.4032V6.47329H13.3631C11.0887 6.47329 10.9388 7.30815 10.9388 8.86572L10.9296 11.8548H16.4365L15.7925 17.8265H10.9296V35.1579ZM35.8372 35.2029H29.763L29.5005 33.6936C26.7271 35.2029 24.2519 35.4476 22.619 35.4476C18.1644 35.4476 15.7933 32.524 15.7933 28.4807C15.7933 23.7106 18.5601 22.0081 23.5096 22.0081H28.5475V20.9768C28.5475 18.5418 28.2634 17.8273 24.4519 17.8273H18.2202L18.8292 11.8556H25.6407C34.0035 11.8556 35.8372 14.4511 35.8372 21.0251V35.2029ZM56.4926 18.2652C52.7127 17.6284 51.6272 17.4884 49.8085 17.4884C46.5419 17.4884 45.5546 18.1964 45.5546 20.922V26.0776C45.5546 28.8032 46.5419 29.5144 49.8085 29.5144C51.6272 29.5144 52.7127 29.372 56.4926 28.7328V34.5579C53.1818 35.2872 51.0249 35.4787 49.202 35.4787C41.3774 35.4787 38.2674 31.4362 38.2674 25.5964V21.4131C38.2674 15.5683 41.3774 11.5184 49.202 11.5184C51.0249 11.5184 53.1818 11.7108 56.4926 12.4433V18.2652ZM79.2999 25.5964H65.9351V26.0776C65.9351 28.8032 66.9232 29.5144 70.189 29.5144C73.1249 29.5144 74.9169 29.372 78.6901 28.7328V34.5579C75.051 35.2872 73.1549 35.4787 69.585 35.4787C61.7595 35.4787 58.6479 31.4362 58.6479 25.5964V20.8131C58.6479 15.7033 60.9564 11.5184 68.9751 11.5184C76.9938 11.5184 79.2999 15.655 79.2999 20.8131V25.5964ZM102.991 25.7068C102.991 31.3511 101.349 35.4681 91.4017 35.4681C87.8093 35.4681 85.7024 35.1579 81.7376 34.5588V2.29412L89.0232 1.09995V12.386C90.5977 11.8114 92.6355 11.5192 94.4901 11.5192C101.776 11.5192 102.99 14.7285 102.99 19.8858V25.7068H102.991ZM126.346 25.8296C126.346 30.6988 124.3 35.4214 115.739 35.4214C107.173 35.4214 105.089 30.6988 105.089 25.8296V21.1282C105.089 16.2566 107.173 11.5332 115.739 11.5332C124.3 11.5332 126.346 16.2566 126.346 21.1282V25.8296ZM149.685 25.8296C149.685 30.6988 147.636 35.4214 139.077 35.4214C130.511 35.4214 128.427 30.6988 128.427 25.8296V21.1282C128.427 16.2566 130.511 11.5332 139.077 11.5332C147.636 11.5332 149.685 16.2566 149.685 21.1282V25.8296ZM173.636 35.1579H165.739L159.06 24.2041V35.1579H151.772V2.2933L159.06 1.09913V22.2561L165.739 11.8556H173.636L166.344 23.2056L173.636 35.1579ZM139.052 17.4991C136.576 17.4991 135.717 18.8283 135.717 20.4833V26.5229C135.717 28.1819 136.576 29.5153 139.052 29.5153C141.523 29.5153 142.398 28.1819 142.398 26.5229V20.4833C142.398 18.8283 141.523 17.4991 139.052 17.4991ZM177.796 31.0704C179.023 31.0704 180 32.0534 180 33.2811C180 34.5276 179.022 35.5 177.786 35.5C176.557 35.5 175.559 34.5276 175.559 33.2811C175.559 32.0534 176.557 31.0704 177.786 31.0704H177.796ZM177.786 31.4141C176.798 31.4141 175.989 32.2498 175.989 33.2811C175.989 34.3312 176.798 35.1562 177.796 35.1562C178.794 35.1661 179.591 34.3312 179.591 33.2909C179.591 32.2506 178.794 31.4141 177.796 31.4141H177.786ZM177.367 34.5677H176.967V32.1008C177.177 32.0722 177.377 32.0435 177.677 32.0435C178.057 32.0435 178.305 32.1221 178.458 32.2293C178.605 32.3382 178.684 32.5044 178.684 32.7393C178.684 33.065 178.466 33.2606 178.197 33.34V33.3588C178.416 33.399 178.565 33.5938 178.616 33.9563C178.674 34.3402 178.735 34.4867 178.774 34.5669H178.355C178.296 34.4867 178.235 34.2616 178.185 33.9367C178.127 33.6232 177.966 33.5054 177.646 33.5054H177.368V34.5677H177.367ZM177.367 33.2025H177.657C177.986 33.2025 178.265 33.0838 178.265 32.7785C178.265 32.5625 178.106 32.3472 177.657 32.3472C177.526 32.3472 177.436 32.357 177.367 32.366V33.2025Z" fill="#1B1B1B"/>
</svg>
