<svg width="180" height="50" viewBox="0 0 180 50" fill="none" xmlns="http://www.w3.org/2000/svg">
<path d="M9.26404 0.175313C5.57989 1.68537 1.5298 5.95149 0.250642 11.3064C-1.36931 18.0912 5.37205 20.9603 5.92498 20.0196C6.57578 18.9142 4.71701 18.5404 4.3344 15.0201C3.8399 10.4733 5.99857 5.39285 8.71533 3.16368C9.22033 2.74952 9.19631 3.32596 9.19631 4.3922C9.19631 6.29888 9.08872 23.4153 9.08872 26.9875C9.08872 31.8211 8.88483 33.3475 8.51865 34.8558C8.14763 36.3842 7.55116 37.417 8.00313 37.8148C8.50811 38.2598 10.6642 37.2013 11.9123 35.4955C13.4091 33.4496 13.933 30.9926 14.0271 28.3244C14.1407 25.1079 14.1359 20.004 14.1407 17.0927C14.1452 14.4227 14.1866 6.60426 14.0929 1.90409C14.0699 0.751239 10.8048 -0.458275 9.26385 0.173911M140.088 22.7964C139.969 25.3093 139.401 27.2735 138.696 28.6589C137.331 31.341 134.499 32.1739 133.296 28.3182C132.641 26.2165 132.61 22.7064 133.081 19.7736C133.561 16.7858 134.9 14.5293 137.118 14.7328C139.305 14.934 140.329 17.6937 140.088 22.7964ZM103.216 38.3871C103.186 42.5624 102.515 46.2233 101.076 47.2866C99.0352 48.7943 96.2918 47.6633 96.8598 44.6165C97.3625 41.9204 99.7396 39.167 103.222 35.8028C103.222 35.8028 103.229 36.57 103.216 38.3871ZM102.659 22.7721C102.534 25.0609 101.928 27.3601 101.267 28.6592C99.9023 31.3413 97.0495 32.1798 95.8673 28.3185C95.059 25.6804 95.2526 22.2659 95.6525 20.1144C96.1715 17.323 97.4294 14.7334 99.6887 14.7334C101.885 14.7334 102.968 17.0929 102.659 22.7721ZM81.2989 22.7371C81.165 25.1611 80.6821 27.1875 79.9071 28.6592C78.505 31.3229 75.731 32.1677 74.5076 28.3185C73.6256 25.543 73.9259 21.7586 74.2927 19.7142C74.8372 16.6805 76.2006 14.5296 78.3289 14.7334C80.5152 14.9426 81.578 17.6937 81.2989 22.7371ZM179.186 25.5685C178.651 25.5685 178.407 26.1079 178.206 27.0159C177.506 30.1731 176.77 30.8859 175.822 30.8859C174.762 30.8859 173.81 29.3227 173.565 26.1932C173.372 23.7325 173.403 19.2022 173.649 14.6957C173.7 13.7698 173.439 12.8537 170.903 11.9516C169.811 11.5635 168.225 10.9921 167.435 12.8591C165.203 18.1336 164.33 22.3211 164.125 24.0222C164.114 24.1102 164.004 24.1282 163.984 23.9225C163.854 22.56 163.561 20.0842 163.525 14.8824C163.518 13.8675 163.298 13.0036 162.154 12.2963C161.412 11.8373 159.158 11.0257 158.346 11.9913C157.643 12.7811 156.828 14.9064 155.982 17.4257C155.294 19.4733 154.815 20.8585 154.815 20.8585C154.815 20.8585 154.824 15.3336 154.833 13.2379C154.836 12.4473 154.282 12.1839 154.116 12.1361C153.364 11.9225 151.883 11.5656 151.254 11.5656C150.479 11.5656 150.289 11.9901 150.289 12.6087C150.289 12.6897 150.166 19.8828 150.166 24.9125C150.166 25.131 150.166 25.3693 150.169 25.6225C149.74 27.9343 148.348 31.0724 146.835 31.0724C145.32 31.0724 144.606 29.7604 144.606 23.7642C144.606 20.2662 144.713 18.7451 144.766 16.2151C144.796 14.7579 144.855 13.6388 144.852 13.3849C144.841 12.6061 143.466 12.2136 142.826 12.0686C142.183 11.9223 141.624 11.8656 141.188 11.89C140.57 11.9241 140.134 12.3207 140.134 12.8663C140.134 13.1588 140.137 13.7151 140.137 13.7151C139.342 12.4913 138.063 11.6396 137.212 11.3927C134.919 10.7261 132.527 11.3168 130.723 13.789C129.289 15.7532 128.425 17.9779 128.085 21.1743C127.836 23.511 127.917 25.8806 128.359 27.8846C127.825 30.1459 126.833 31.0724 125.747 31.0724C124.171 31.0724 123.028 28.5529 123.161 24.1956C123.249 21.3296 123.834 19.3183 124.474 16.4085C124.747 15.1682 124.526 14.5188 123.969 13.8963C123.459 13.3256 122.372 13.0339 120.809 13.3926C119.696 13.6483 118.105 13.9233 116.649 14.1346C116.649 14.1346 116.736 13.7913 116.809 13.1861C117.187 10.0123 113.665 10.2699 112.542 11.2836C111.871 11.8888 111.414 12.6026 111.241 13.886C110.966 15.9226 112.662 16.8832 112.662 16.8832C112.106 19.3779 110.742 22.6368 109.333 24.993C108.579 26.2554 108.002 27.1908 107.257 28.1852C107.254 27.8149 107.252 27.4447 107.25 27.0761C107.233 21.8313 107.305 17.7034 107.336 16.2156C107.367 14.7584 107.426 13.669 107.423 13.4151C107.415 12.8455 107.075 12.6304 106.368 12.358C105.744 12.1171 105.005 11.9504 104.239 11.8923C103.272 11.8184 102.689 12.3207 102.704 12.9146C102.707 13.0267 102.707 13.7153 102.707 13.7153C101.912 12.4915 100.633 11.6398 99.7817 11.3929C97.4895 10.7266 95.0975 11.3173 93.2933 13.7892C91.8597 15.7534 90.9208 18.5098 90.6547 21.1502C90.4069 23.611 90.4527 25.7023 90.7905 27.4639C90.426 29.2279 89.378 31.0726 88.1931 31.0726C86.6783 31.0726 85.8163 29.7606 85.8163 23.7644C85.8163 20.2664 85.9236 18.7453 85.9763 16.2156C86.0069 14.7584 86.066 13.6391 86.0626 13.3854C86.0515 12.6066 84.6762 12.2141 84.0364 12.0688C83.3668 11.9172 82.7887 11.8614 82.3449 11.8934C81.7592 11.9362 81.3475 12.4497 81.3475 12.8327V13.7153C80.5522 12.4915 79.2731 11.6398 78.422 11.3929C76.1297 10.7266 73.7511 11.3268 71.9336 13.7892C70.7484 15.3947 69.7889 17.1748 69.295 21.1151C69.1523 22.2538 69.0893 23.3202 69.0975 24.3168C68.6248 27.1471 66.5374 30.4092 64.8298 30.4092C63.8306 30.4092 62.879 28.5115 62.879 24.4669C62.879 19.0794 63.2195 11.4087 63.2771 10.6694C63.2771 10.6694 65.4346 10.6335 65.8524 10.6287C66.9285 10.6172 67.9032 10.6421 69.3365 10.5703C70.0555 10.5344 70.7481 8.00794 70.0061 7.69526C69.6698 7.55375 67.293 7.42974 66.3508 7.41016C65.5585 7.39258 63.3529 7.23275 63.3529 7.23275C63.3529 7.23275 63.5507 2.14128 63.5967 1.60343C63.6358 1.15516 63.0435 0.924357 62.7039 0.78431C61.878 0.442257 61.139 0.278485 60.2632 0.101673C59.0531 -0.142772 58.5041 0.096332 58.3969 1.09641C58.2354 2.61419 58.1517 7.05978 58.1517 7.05978C57.2637 7.05978 54.2304 6.88981 53.3421 6.88981C52.5168 6.88981 51.6261 10.3653 52.7671 10.408C54.0798 10.4579 56.3676 10.5009 57.8842 10.5457C57.8842 10.5457 57.8167 18.3428 57.8167 20.7499C57.8167 21.0061 57.8189 21.2527 57.8194 21.492C56.9847 25.7522 54.0447 28.0534 54.0447 28.0534C54.6761 25.2351 53.3863 23.1186 51.0632 21.327C50.2072 20.6668 48.5176 19.417 46.627 18.0473C46.627 18.0473 47.722 16.9906 48.693 14.8647C49.3811 13.3588 49.4108 11.6354 47.722 11.2554C44.9316 10.627 42.6309 12.6337 41.9446 14.776C41.4129 16.4355 41.6965 17.667 42.7381 18.9462C42.8142 19.0397 42.8966 19.1352 42.9817 19.2313C42.3518 20.4202 41.4865 22.0207 40.7537 23.2619C38.7195 26.708 37.1828 29.4338 36.0216 29.4338C35.0932 29.4338 35.1057 26.6664 35.1057 24.0754C35.1057 21.8417 35.2741 18.4834 35.4087 15.0065C35.4532 13.8566 34.866 13.2015 33.8817 12.6082C33.2836 12.2477 32.0072 11.539 31.2679 11.539C30.1614 11.539 26.9691 11.6864 23.9527 20.2302C23.5726 21.3071 22.8258 23.2693 22.8258 23.2693L22.8901 12.995C22.8901 12.7541 22.759 12.5213 22.459 12.3619C21.9508 12.0917 20.5932 11.539 19.386 11.539C18.8109 11.539 18.5238 11.8009 18.5238 12.3231L18.4185 28.3973C18.4185 29.6186 18.4511 31.0434 18.5744 31.6666C18.6972 32.2905 18.8963 32.7981 19.1428 33.1001C19.389 33.4015 19.6737 33.6315 20.1432 33.7264C20.5801 33.8144 22.9728 34.1153 23.0972 33.22C23.2462 32.147 23.2519 30.9864 24.5082 26.6579C26.4642 19.919 29.0143 16.631 30.2132 15.4633C30.4228 15.2592 30.6621 15.2471 30.6506 15.5811C30.5994 17.0585 30.4194 20.7503 30.2983 23.8867C29.9735 32.2801 31.5329 33.8358 33.7613 33.8358C35.4661 33.8358 37.8692 32.1771 40.4454 27.9784C42.0514 25.3618 43.6108 22.7961 44.7312 20.947C45.512 21.6547 46.3882 22.4165 47.2637 23.2302C49.2985 25.1212 49.9665 26.9181 49.5233 28.6228C49.1843 29.9259 47.9076 31.2689 45.6353 29.9636C44.973 29.5828 44.6903 29.2885 44.0244 28.8592C43.6666 28.6286 43.1203 28.5596 42.7928 28.8012C41.9421 29.4293 41.4555 30.2283 41.1777 31.2174C40.9074 32.1798 41.8918 32.6886 42.9122 33.1336C43.7908 33.5166 45.6792 33.8636 46.8835 33.9032C51.5759 34.0568 55.3349 31.6846 57.9516 25.5655C58.42 30.8501 60.4136 33.8405 63.8771 33.8405C66.1927 33.8405 68.5144 30.9097 69.5297 28.0264C69.8211 29.2017 70.2526 30.2238 70.8097 31.088C73.4786 35.2287 78.656 34.3375 81.2568 30.8214C82.0608 29.735 82.1832 29.3446 82.1832 29.3446C82.5626 32.6646 85.2929 33.8246 86.8563 33.8246C88.6071 33.8246 90.4149 33.0141 91.682 30.2209C91.8304 30.524 91.9925 30.8135 92.1695 31.0879C94.8383 35.2286 100.016 34.3374 102.616 30.8213C102.739 30.6564 102.846 30.5068 102.939 30.3725L103.015 32.5532C103.015 32.5532 101.531 33.8859 100.621 34.7035C96.6122 38.3045 93.5643 41.0365 93.3401 44.218C93.0523 48.2747 96.4123 49.7824 98.9542 49.98C101.654 50.1897 103.965 48.7295 105.386 46.686C106.636 44.8873 107.454 41.0161 107.394 37.1926C107.37 35.6615 107.331 33.7147 107.3 31.6279C108.709 30.0259 110.296 28.0011 111.757 25.631C113.35 23.0482 115.057 19.5796 115.931 16.8801C115.931 16.8801 117.414 16.8926 118.997 16.7911C119.503 16.7588 119.649 16.86 119.555 17.2234C119.442 17.6625 117.555 24.7879 119.277 29.5346C120.456 32.7841 123.112 33.8295 124.688 33.8295C126.531 33.8295 128.295 32.466 129.241 30.4413C129.355 30.667 129.474 30.8854 129.604 31.0871C132.272 35.2277 137.432 34.3312 140.051 30.8204C140.642 30.0283 140.977 29.3436 140.977 29.3436C141.539 32.7796 144.268 33.8411 145.831 33.8411C147.459 33.8411 149.004 33.1875 150.258 30.2828C150.31 31.5618 150.393 32.6075 150.523 32.9372C150.602 33.1388 151.065 33.392 151.402 33.5142C152.891 34.055 154.41 33.7993 154.972 33.688C155.362 33.6109 155.665 33.305 155.707 32.5153C155.816 30.4416 155.749 26.9574 156.391 24.3681C157.468 20.0225 158.474 18.3368 158.951 17.5023C159.217 17.0347 159.519 16.9576 159.53 17.4524C159.552 18.4537 159.603 21.394 160.02 25.3444C160.327 28.2499 160.737 29.9672 161.051 30.5107C161.95 32.0649 163.059 32.1385 163.963 32.1385C164.537 32.1385 165.739 31.983 165.632 30.9939C165.579 30.5118 165.671 27.5324 166.734 23.2511C167.427 20.4553 168.584 17.9291 169.001 17.0056C169.155 16.665 169.227 16.9335 169.224 16.9858C169.136 18.9112 168.939 25.2089 169.74 28.6533C170.826 33.3193 173.967 33.8414 175.062 33.8414C177.399 33.8414 179.31 32.1008 179.954 27.5209C180.109 26.4187 179.879 25.5676 179.191 25.5676" fill="#1B1B1B"/>
</svg>
