<svg width="180" height="50" viewBox="0 0 180 50" fill="none" xmlns="http://www.w3.org/2000/svg">
<path d="M31.875 16.8833C35.2624 19.2377 39.4105 20.6232 43.8909 20.6232V14.0217C41.39 13.5035 39.176 12.2323 37.5113 10.4641C34.6619 8.73465 32.6091 5.88146 32.0071 2.54199H25.7259V36.0393C25.7117 39.9444 22.4535 43.1064 18.4356 43.1064C16.0678 43.1064 13.9644 42.0086 12.6322 40.308C10.2533 39.1402 8.62199 36.7426 8.62199 33.9738C8.62199 30.0579 11.8856 26.8829 15.9121 26.8829C16.6836 26.8829 17.4272 26.9998 18.1247 27.215V20.5414C9.47771 20.7151 2.52344 27.5875 2.52344 36.0395C2.52344 40.2586 4.25521 44.0835 7.0659 46.8782C9.60155 48.5343 12.654 49.5001 15.9381 49.5001C24.7398 49.5001 31.8752 42.5597 31.8752 33.9982V16.8833H31.875Z" fill="#1B1B1B"/>
<path d="M43.8907 14.0213V12.2363C41.6355 12.2396 39.4245 11.6253 37.5111 10.4636C39.2049 12.2673 41.4353 13.511 43.8907 14.0213ZM32.0069 2.54162C31.9495 2.22246 31.9054 1.90119 31.8748 1.5787V0.5H23.2021V33.9976C23.1882 37.9022 19.9302 41.0642 15.9119 41.0642C14.7322 41.0642 13.6184 40.7918 12.632 40.3078C13.9642 42.0082 16.0676 43.1059 18.4353 43.1059C22.4529 43.1059 25.7116 39.9442 25.7257 36.0391V2.54162H32.0069ZM18.1248 20.541V18.6407C17.4002 18.5444 16.6696 18.496 15.938 18.4964C7.13553 18.4962 0 25.4367 0 33.9976C0 39.3649 2.80439 44.095 7.06587 46.8775C4.25518 44.083 2.52341 40.2579 2.52341 36.0389C2.52341 27.5871 9.4775 20.7148 18.1248 20.541Z" fill="#1B1B1B"/>
<path d="M144.382 42.4811C150.68 42.4811 155.786 37.5524 155.786 31.4733C155.786 25.3943 150.68 20.4648 144.382 20.4648H142.664C148.962 20.4648 154.068 25.3942 154.068 31.4733C154.068 37.5524 148.962 42.4811 142.664 42.4811H144.382Z" fill="#1B1B1B"/>
<path d="M142.509 20.4648H140.791C134.493 20.4648 129.387 25.3942 129.387 31.4733C129.387 37.5524 134.493 42.4811 140.791 42.4811H142.509C136.21 42.4811 131.105 37.5524 131.105 31.4733C131.104 25.3943 136.21 20.4648 142.509 20.4648Z" fill="#1B1B1B"/>
<path d="M55.8125 15.4902V21.07H62.5284V42.3312H69.2471V21.2206H74.714L76.5886 15.4904L55.8125 15.4902ZM110.799 15.4902V21.07H117.515V42.3312H124.234V21.2206H129.7L131.575 15.4904L110.799 15.4902ZM77.8394 18.6566C77.8394 16.9082 79.3056 15.4902 81.1172 15.4902C82.9303 15.4902 84.3982 16.9082 84.3982 18.6566C84.3982 20.4052 82.9312 21.8232 81.1172 21.8232C79.3056 21.8223 77.8394 20.4052 77.8394 18.6566ZM77.8394 24.0857H84.3982V42.3312H77.8394V24.0857ZM87.2105 15.4902V42.331H93.7718V35.3953L95.8028 33.5842L102.207 42.4817H109.236L100.018 29.5137L108.298 21.6717H100.331L93.7718 28.0046V15.4902H87.2105ZM157.973 15.4902V42.331H164.535V35.3953L166.565 33.5842L172.971 42.4817H180.001L170.784 29.5137L179.063 21.6717H171.097L164.535 28.0046V15.4902H157.973Z" fill="#1B1B1B"/>
<path d="M142.663 42.4811C148.961 42.4811 154.067 37.5524 154.067 31.4733C154.067 25.3943 148.961 20.4648 142.663 20.4648H142.507C136.209 20.4648 131.104 25.3942 131.104 31.4733C131.104 37.5524 136.209 42.4811 142.507 42.4811H142.663ZM137.04 31.4733C137.04 28.5162 139.524 26.1209 142.587 26.1209C145.647 26.1209 148.131 28.5162 148.131 31.4733C148.131 34.4304 145.647 36.8271 142.587 36.8271C139.524 36.8265 137.04 34.4304 137.04 31.4733Z" fill="#1B1B1B"/>
</svg>
