<svg width="180" height="30" viewBox="0 0 180 30" fill="none" xmlns="http://www.w3.org/2000/svg">
<path d="M54.6645 18.6122C54.6645 20.8897 52.4417 22.539 49.3133 22.539H41.9863V8.40283H49.0663C52.1124 8.40283 54.2529 9.97352 54.2529 12.1725C54.2529 13.6646 53.4296 14.607 52.1947 15.1568C53.5119 15.628 54.6645 16.8845 54.6645 18.6122ZM45.197 10.9945V14.0573H48.984C50.1366 14.0573 50.8775 13.429 50.8775 12.5652C50.8775 11.7013 50.0542 10.9945 48.984 10.9945H45.197ZM49.3133 19.9474C50.5482 19.9474 51.4538 19.2405 51.4538 18.2196C51.4538 17.1987 50.6305 16.4918 49.3133 16.4918H45.197V19.9474H49.3133Z" fill="#1B1B1B"/>
<path d="M66.7652 22.4604L61.6613 16.8845H60.838V22.4604H57.5449V8.40283H60.838V13.8217H61.6613L66.6008 8.40283H70.4703L64.2957 15.1568L71.0462 22.4604H66.7652Z" fill="#1B1B1B"/>
<path d="M71.0469 15.4707C71.0469 11.2298 74.3404 8.16699 78.9503 8.16699C83.5608 8.16699 86.8537 11.2298 86.8537 15.4707C86.8537 19.7115 83.5608 22.7743 78.9503 22.7743C74.3404 22.7743 71.0469 19.7115 71.0469 15.4707ZM83.3963 15.4707C83.3963 12.8005 81.5847 10.9942 78.9503 10.9942C76.3158 10.9942 74.5049 12.8005 74.5049 15.4707C74.5049 18.1408 76.3158 19.9471 78.9503 19.9471C81.5847 19.9471 83.3963 18.1408 83.3963 15.4707Z" fill="#1B1B1B"/>
<path d="M99.4491 8.40283H102.743V22.4604H99.4491V16.806H92.8632V22.4604H89.5703V8.40283H92.8632V13.9787H99.4491V8.40283Z" fill="#1B1B1B"/>
<path d="M109.821 22.4604V11.23H104.717V8.40283H118.136V11.23H113.032V22.4604H109.821Z" fill="#1B1B1B"/>
<path d="M132.298 14.6068V22.4602H129.91L129.252 20.2613C128.511 21.4393 126.947 22.7743 124.56 22.7743C121.596 22.7743 119.455 20.8895 119.455 18.2979C119.455 15.7063 121.596 13.9 125.959 13.9H129.169C129.005 12.0937 128.017 10.8372 126.206 10.8372C124.724 10.8372 123.736 11.6225 123.242 12.4864L120.279 12.0152C121.02 9.58062 123.572 8.16699 126.37 8.16699C129.993 8.16699 132.298 10.523 132.298 14.6068ZM129.087 16.3346H126.042C123.572 16.3346 122.748 17.1199 122.748 18.1408C122.748 19.3188 123.736 20.1042 125.382 20.1042C127.523 20.1042 129.087 18.6121 129.087 16.3346Z" fill="#1B1B1B"/>
<path d="M144.976 22.4604L139.872 16.8845H139.049V22.4604H135.756V8.40283H139.049V13.8217H139.872L144.812 8.40283H148.681L142.507 15.1568L149.257 22.4604H144.976Z" fill="#1B1B1B"/>
<path d="M155.184 22.4604V11.23H150.08V8.40283H163.499V11.23H158.395V22.4604H155.184Z" fill="#1B1B1B"/>
<path d="M179.963 16.3346H168.108C168.437 18.5335 170.084 19.9471 172.553 19.9471C174.282 19.9471 175.6 19.2403 176.341 18.2194L179.387 18.6906C178.316 21.3608 175.435 22.7743 172.306 22.7743C167.861 22.7743 164.65 19.7115 164.65 15.4707C164.65 11.2298 167.861 8.16699 172.306 8.16699C176.752 8.16699 179.963 11.2298 179.963 15.3136C180.045 15.7063 179.963 16.0204 179.963 16.3346ZM168.355 13.9H176.505C175.929 12.1723 174.447 10.9157 172.389 10.9157C170.413 10.8372 168.849 12.0937 168.355 13.9Z" fill="#1B1B1B"/>
<path d="M0 14.4C0 7.61177 0 4.21767 2.21065 2.10884C4.42131 0 7.97927 0 15.0953 0H16.3532C23.4692 0 27.0272 0 29.2379 2.10884C31.4485 4.21767 31.4485 7.61177 31.4485 14.4V15.6C31.4485 22.3883 31.4485 25.7824 29.2379 27.8912C27.0272 30.0001 23.4692 30.0001 16.3532 30.0001H15.0953C7.97927 30.0001 4.42131 30.0001 2.21065 27.8912C0 25.7824 0 22.3883 0 15.6V14.4Z" fill="#1B1B1B"/>
<path d="M16.7329 21.6125C9.56523 21.6125 5.47699 16.925 5.30664 9.125H8.89701C9.01494 14.85 11.6618 17.275 13.7584 17.775V9.125H17.1392V14.0625C19.2096 13.85 21.3845 11.6 22.1183 9.125H25.4991C24.9356 12.175 22.577 14.425 20.8997 15.35C22.577 16.1 25.2633 18.0625 26.2854 21.6125H22.5639C21.7646 19.2375 19.773 17.4 17.1392 17.15V21.6125H16.7329Z" fill="#A55741"/>
</svg>
