<svg width="180" height="40" viewBox="0 0 180 40" fill="none" xmlns="http://www.w3.org/2000/svg">
<path d="M56.2024 6.24648C55.541 3.78646 53.5987 1.85325 51.1274 1.19473C46.6527 3.57628e-07 28.7013 0 28.7013 0C28.7013 0 10.75 3.57628e-07 6.27516 1.19473C3.80386 1.85325 1.86176 3.78646 1.20022 6.24648C3.59271e-07 10.7008 0 20 0 20C0 20 3.59271e-07 29.2992 1.20022 33.7536C1.86176 36.2136 3.80386 38.1468 6.27516 38.8052C10.75 40 28.7013 40 28.7013 40C28.7013 40 46.6527 40 51.1274 38.8052C53.5987 38.1468 55.541 36.2136 56.2024 33.7536C57.4027 29.2992 57.4027 20 57.4027 20C57.4027 20 57.3979 10.7008 56.2024 6.24648Z" fill="#1B1B1B"/>
<path d="M22.9551 28.5713L37.8681 20.0013L22.9551 11.4312V28.5713Z" fill="#A55741"/>
<path d="M69.5234 26.0062L63.0781 2.83594H68.7012L70.96 13.3392C71.5364 15.9262 71.9569 18.1323 72.231 19.9573H72.3963C72.5854 18.6497 73.0108 16.4578 73.6676 13.3769L76.0065 2.83594H81.6296L75.1039 26.0062V37.121H69.5188V26.0062H69.5234Z" fill="#1B1B1B"/>
<path d="M83.3219 36.3874C82.1879 35.6254 81.3798 34.44 80.8978 32.8314C80.4206 31.2228 80.1797 29.0874 80.1797 26.4156V22.7796C80.1797 20.0844 80.4537 17.9161 81.0018 16.2839C81.55 14.6518 82.4053 13.457 83.5676 12.7091C84.7301 11.9613 86.2563 11.585 88.1465 11.585C90.0082 11.585 91.4966 11.966 92.6212 12.728C93.7411 13.4899 94.5633 14.6847 95.083 16.3027C95.6028 17.9255 95.8628 20.0844 95.8628 22.7796V26.4156C95.8628 29.0874 95.6076 31.2322 95.1021 32.8502C94.5964 34.473 93.7743 35.6584 92.6401 36.4062C91.5061 37.1542 89.9656 37.5304 88.0236 37.5304C86.02 37.535 84.456 37.1494 83.3219 36.3874ZM89.6821 32.4646C89.994 31.6462 90.1547 30.315 90.1547 28.4618V20.6584C90.1547 18.8615 89.9988 17.5445 89.6821 16.7167C89.3655 15.8841 88.8128 15.4702 88.0187 15.4702C87.2534 15.4702 86.71 15.8841 86.3981 16.7167C86.0815 17.5492 85.9256 18.8615 85.9256 20.6584V28.4618C85.9256 30.315 86.0767 31.6508 86.3792 32.4646C86.6816 33.283 87.2249 33.6922 88.0187 33.6922C88.8128 33.6922 89.3655 33.283 89.6821 32.4646Z" fill="#1B1B1B"/>
<path d="M114.153 37.1273H109.721L109.229 34.0605H109.107C107.902 36.3747 106.097 37.5317 103.687 37.5317C102.019 37.5317 100.785 36.9861 99.9916 35.8997C99.1978 34.8083 98.8008 33.1057 98.8008 30.7915V12.0755H104.466V30.4621C104.466 31.5817 104.589 32.3765 104.835 32.8517C105.081 33.3267 105.492 33.5665 106.068 33.5665C106.56 33.5665 107.032 33.4161 107.486 33.1151C107.94 32.8139 108.27 32.4329 108.492 31.9721V12.0708H114.153V37.1273Z" fill="#1B1B1B"/>
<path d="M129.543 7.37516H123.92V37.1258H118.377V7.37516H112.754V2.84082H129.543V7.37516Z" fill="#1B1B1B"/>
<path d="M143.21 37.1273H138.778L138.286 34.0605H138.163C136.958 36.3747 135.153 37.5317 132.743 37.5317C131.075 37.5317 129.842 36.9861 129.048 35.8997C128.254 34.8083 127.857 33.1057 127.857 30.7915V12.0755H133.523V30.4621C133.523 31.5817 133.646 32.3765 133.892 32.8517C134.137 33.3267 134.548 33.5665 135.125 33.5665C135.616 33.5665 136.089 33.4161 136.543 33.1151C136.996 32.8139 137.327 32.4329 137.549 31.9721V12.0708H143.21V37.1273Z" fill="#1B1B1B"/>
<path d="M161.959 16.0769C161.614 14.4965 161.061 13.3535 160.295 12.6432C159.53 11.933 158.476 11.5802 157.134 11.5802C156.095 11.5802 155.121 11.8718 154.219 12.4598C153.316 13.0478 152.617 13.8145 152.125 14.7693H152.083V1.5708H146.625V37.1211H151.303L151.879 34.7505H152.002C152.442 35.5971 153.099 36.2603 153.973 36.7543C154.847 37.2435 155.82 37.4881 156.888 37.4881C158.802 37.4881 160.215 36.6085 161.117 34.8539C162.02 33.0947 162.473 30.3525 162.473 26.6179V22.6527C162.473 19.854 162.299 17.6574 161.959 16.0769ZM156.765 26.2979C156.765 28.1229 156.69 29.5529 156.539 30.5877C156.387 31.6225 156.137 32.3611 155.778 32.7937C155.423 33.2311 154.941 33.4475 154.341 33.4475C153.874 33.4475 153.444 33.3393 153.047 33.1183C152.65 32.9019 152.328 32.5727 152.083 32.1399V17.9208C152.272 17.2387 152.603 16.6837 153.07 16.2463C153.533 15.8088 154.044 15.5924 154.587 15.5924C155.164 15.5924 155.608 15.8182 155.92 16.2651C156.236 16.7166 156.454 17.4692 156.577 18.5322C156.699 19.5953 156.761 21.1051 156.761 23.0665V26.2979H156.765Z" fill="#1B1B1B"/>
<path d="M170.513 27.7414C170.513 29.35 170.56 30.5542 170.654 31.3586C170.749 32.1628 170.947 32.7462 171.25 33.1178C171.552 33.4846 172.015 33.668 172.644 33.668C173.49 33.668 174.075 33.3388 174.387 32.685C174.704 32.0312 174.874 30.94 174.902 29.416L179.788 29.7028C179.817 29.9192 179.831 30.2202 179.831 30.6012C179.831 32.9154 179.193 34.6464 177.922 35.7894C176.651 36.9324 174.85 37.5062 172.526 37.5062C169.733 37.5062 167.777 36.636 166.657 34.891C165.532 33.146 164.975 30.4508 164.975 26.8006V22.4262C164.975 18.6681 165.556 15.9211 166.718 14.1902C167.881 12.4592 169.87 11.5938 172.691 11.5938C174.633 11.5938 176.126 11.9465 177.166 12.6568C178.205 13.367 178.938 14.4677 179.363 15.9682C179.788 17.4686 180.001 19.5382 180.001 22.1816V26.4714H170.513V27.7414ZM171.231 15.9353C170.943 16.288 170.754 16.8666 170.654 17.6709C170.56 18.4752 170.513 19.6935 170.513 21.3304V23.1272H174.657V21.3304C174.657 19.7217 174.6 18.5034 174.491 17.6709C174.383 16.8383 174.184 16.2551 173.896 15.9117C173.608 15.5731 173.163 15.399 172.563 15.399C171.959 15.4037 171.514 15.5825 171.231 15.9353Z" fill="#1B1B1B"/>
</svg>
