<svg width="20" height="13" viewBox="0 0 20 13" fill="none" xmlns="http://www.w3.org/2000/svg">
<path d="M20 6.41268C20 9.85551 18.1884 12.5 15.0966 12.5C12.9227 12.5 11.401 11.5769 9.97584 8.58316C8.79227 11.078 7.14976 12.3753 4.83092 12.4002C2.00483 12.4252 0 10.1299 0 6.51247C0 3.06965 1.95652 0.5 4.92754 0.5C6.71498 0.5 8.57488 1.37318 10.0725 4.51663C11.5217 1.49792 12.9227 0.574844 15.1449 0.574844C18.0193 0.574844 20 2.94491 20 6.41268ZM1.64251 6.51247C1.64251 8.73285 2.75362 10.7287 4.90338 10.7287C6.66667 10.7287 7.97101 9.30665 9.17874 6.61227C8.01932 3.74324 6.81159 2.14657 4.95169 2.14657C2.85024 2.14657 1.64251 4.19231 1.64251 6.51247ZM15.0483 2.24636C13.1401 2.24636 12.1498 3.79314 10.8937 6.51247C12.0048 9.2817 13.1642 10.8285 15 10.8285C17.1256 10.8285 18.4058 8.83264 18.4058 6.53742C18.4058 4.16736 17.0773 2.24636 15.0483 2.24636Z" fill="white"/>
</svg>
