<svg width="85" height="50" viewBox="0 0 85 50" fill="none" xmlns="http://www.w3.org/2000/svg">
<path d="M5 45V5H35V0H1.5625C0.699558 0 0 0.699558 0 1.5625V48.4375C0 49.3004 0.699558 50 1.5625 50H83.4375C84.3004 50 85 49.3004 85 48.4375V1.5625C85 0.699558 84.3004 0 83.4375 0H50V5H80V45H5Z" fill="#005FAA"/>
<path fill-rule="evenodd" clip-rule="evenodd" d="M10 10H35V40H30V30H15V40H10V10ZM15 25H30V15H15V25Z" fill="#005FAA"/>
<path d="M50 40H55V15H60V40H65V15H70V40H75V10H50V40Z" fill="#005FAA"/>
<path d="M40 10H45V40H40V10Z" fill="#005FAA"/>
<path d="M45 0H40V5H45V0Z" fill="#005FAA"/>
</svg>
