<svg width="50" height="50" viewBox="0 0 50 50" fill="none" xmlns="http://www.w3.org/2000/svg">
<g clip-path="url(#clip0_73_1534)">
<path d="M14.375 7.5V0.625H7.5V7.5H0.625V14.375H7.5V7.5H14.375Z" fill="#005FAA"/>
<path d="M42.5 0.625V7.5H35.625V0.625H42.5Z" fill="#005FAA"/>
<path d="M42.5 7.5H49.375V14.375H42.5V7.5Z" fill="#005FAA"/>
<path d="M7.5 42.5V35.625H0.625V42.5H7.5Z" fill="#005FAA"/>
<path d="M7.5 42.5H14.375V49.375H7.5V42.5Z" fill="#005FAA"/>
<path d="M42.5 42.5V49.375H35.625V42.5H42.5Z" fill="#005FAA"/>
<path d="M42.5 42.5V35.625H49.375V42.5H42.5Z" fill="#005FAA"/>
<path d="M28.4375 19.375V12.5H21.5625V19.375H28.4375Z" fill="#005FAA"/>
<path d="M34.6875 36.875V23.125H15.3125V36.875H34.6875Z" fill="#005FAA"/>
</g>
<defs>
<clipPath id="clip0_73_1534">
<rect width="50" height="50" fill="white"/>
</clipPath>
</defs>
</svg>
