<svg width="50" height="50" viewBox="0 0 50 50" fill="none" xmlns="http://www.w3.org/2000/svg">
<g clip-path="url(#clip0_73_1521)">
<path d="M26.6427 9.34294L31.3141 4.67147L35.9856 9.34294L40.6571 4.67147L35.9856 0L31.3141 4.67147L26.6427 0L21.9712 4.67147L26.6427 9.34294Z" fill="#005FAA"/>
<path d="M50 14.0144L45.3285 18.6859L40.6571 14.0144L45.3285 9.34294L50 14.0144Z" fill="#005FAA"/>
<path d="M45.3285 18.6859L40.6571 23.3573L45.3285 28.0288L50 23.3573L45.3285 18.6859Z" fill="#005FAA"/>
<path d="M17.2997 18.6859L21.9712 14.0144L17.2997 9.34294L12.6282 14.0144L17.2997 18.6859Z" fill="#005FAA"/>
<path d="M17.2997 18.6859L21.9712 23.3573L17.2997 28.0288L12.6282 23.3573L17.2997 18.6859Z" fill="#005FAA"/>
<path d="M31.3141 32.7003L26.6427 37.3718L21.9712 32.7003L26.6427 28.0288L31.3141 32.7003Z" fill="#005FAA"/>
<path d="M31.3141 32.7003L35.9856 28.0288L40.6571 32.7003L35.9856 37.3718L31.3141 32.7003Z" fill="#005FAA"/>
<path d="M4.67147 50L17.4339 37.2375L12.7625 32.5661L0 45.3285L4.67147 50Z" fill="#005FAA"/>
</g>
<defs>
<clipPath id="clip0_73_1521">
<rect width="50" height="50" fill="white"/>
</clipPath>
</defs>
</svg>
